<svg xmlns="http://www.w3.org/2000/svg" version="1.1" xmlns:xlink="http://www.w3.org/1999/xlink" xmlns:svgjs="http://svgjs.dev/svgjs" width="2000" height="1500" viewBox="0 0 2000 1500"><rect width="2000" height="1500" fill="#046380"></rect><g transform="matrix(0.35688793718772305,0,0,0.35688793718772305,642.6008629862587,248.38709677419354)"><svg viewBox="0 0 177 248" data-background-color="#046380" preserveAspectRatio="xMidYMid meet" height="2802" width="2000" xmlns="http://www.w3.org/2000/svg" xmlns:xlink="http://www.w3.org/1999/xlink"><g id="tight-bounds" transform="matrix(1,0,0,1,0.12676579925653186,0.4000000000000057)"><svg viewBox="0 0 176.74646840148696 247.2" height="247.2" width="176.74646840148696"><g><svg viewBox="0 0 176.74646840148696 247.2" height="247.2" width="176.74646840148696"><g><svg viewBox="0 0 176.74646840148696 247.2" height="247.2" width="176.74646840148696"><g id="textblocktransform"><svg viewBox="0 0 176.74646840148696 247.2" height="247.2" width="176.74646840148696" id="textblock"><g><svg viewBox="0 0 176.74646840148696 247.2" height="247.2" width="176.74646840148696"><g transform="matrix(1,0,0,1,0,0)"><svg width="176.74646840148696" viewBox="2.75 -36 28.85 40.35" height="247.2" data-palette-color="#ffffff"><path d="M2.75 4.35L2.75 4.35Q3.05 2.6 3.45 0.78 3.85-1.05 4.48-3.33 5.1-5.6 6-8.6 6.9-11.6 8.25-15.7L8.25-15.7Q7.45-15.65 6.63-15.55 5.8-15.45 4.95-15.35L4.95-15.35Q5-16.6 6.13-17.32 7.25-18.05 9.1-18.4L9.1-18.4Q9.45-19.45 9.83-20.58 10.2-21.7 10.6-22.93 11-24.15 11.45-25.43 11.9-26.7 12.38-28.1 12.85-29.5 13.35-30.95L13.35-30.95Q13.55-31.5 13.8-32.33 14.05-33.15 14.05-33.9L14.05-33.9Q14.05-34.3 13.93-34.45 13.8-34.6 13.35-34.6L13.35-34.6Q12.15-34.6 11.03-33.63 9.9-32.65 9.03-31.15 8.15-29.65 7.65-28.05 7.15-26.45 7.15-25.2L7.15-25.2Q7.15-24.75 7.23-24.3 7.3-23.85 7.4-23.5L7.4-23.5Q5.75-23.5 5.08-24.33 4.4-25.15 4.4-26.35L4.4-26.35Q4.4-28.05 5.4-29.75 6.4-31.45 7.98-32.88 9.55-34.3 11.28-35.15 13-36 14.4-36L14.4-36Q15.75-36 16.23-35.25 16.7-34.5 16.7-33.6L16.7-33.6Q16.7-33.05 16.57-32.5 16.45-31.95 16.3-31.45L16.3-31.45 12.4-18.75Q13.1-18.8 13.83-18.82 14.55-18.85 15.3-18.85L15.3-18.85Q17.65-18.85 19.78-18.73 21.9-18.6 23.8-18.4L23.8-18.4Q24.8-21.6 25.78-24.7 26.75-27.8 27.58-30.13 28.4-32.45 28.85-33.4L28.85-33.4Q29.05-33.8 29.4-34.4 29.75-35 30.33-35.5 30.9-36 31.6-36L31.6-36Q30.9-34.15 30-31.28 29.1-28.4 28.18-25 27.25-21.6 26.35-18.2L26.35-18.2Q27.35-18.15 28.28-18.07 29.2-18 30.1-18L30.1-18Q29-16.85 27.95-16.63 26.9-16.4 25.9-16.4L25.9-16.4Q25.45-14.55 25.05-12.83 24.65-11.1 24.35-9.55L24.35-9.55Q23.45-5.3 23.08-2.3 22.7 0.7 22.7 2.55L22.7 2.55Q22.7 3.15 22.73 3.58 22.75 4 22.8 4.35L22.8 4.35Q20.85 4.15 20.1 3.25 19.35 2.35 19.35 0.45L19.35 0.45Q19.35-0.85 19.65-2.83 19.95-4.8 20.55-7.1L20.55-7.1Q20.95-8.6 21.65-11.08 22.35-13.55 23.2-16.35L23.2-16.35Q20.15-16.35 18.1-16.3 16.05-16.25 14.55-16.2 13.05-16.15 11.55-16L11.55-16Q10.65-13.1 9.75-10.25 8.85-7.4 8.1-5.03 7.35-2.65 6.85-1 6.35 0.65 6.2 1.15L6.2 1.15Q5.7 2.85 4.63 3.6 3.55 4.35 2.75 4.35Z" opacity="1" transform="matrix(1,0,0,1,0,0)" fill="#ffffff" class="wordmark-text-0" data-fill-palette-color="primary" id="text-0"></path></svg></g></svg></g></svg></g></svg></g><g></g></svg></g><defs></defs></svg><rect width="176.74646840148696" height="247.2" fill="none" stroke="none" visibility="hidden"></rect></g></svg></g></svg>